<?xml version="1.0" standalone="no"?>
<!DOCTYPE svg PUBLIC "-//W3C//DTD SVG 20010904//EN"
 "http://www.w3.org/TR/2001/REC-SVG-20010904/DTD/svg10.dtd">
<svg version="1.0" xmlns="http://www.w3.org/2000/svg"
 width="380.000000pt" height="380.000000pt" viewBox="0 0 380.000000 380.000000"
 preserveAspectRatio="xMidYMid meet">
<metadata>
Created by potrace 1.14, written by Peter Selinger 2001-2017
</metadata>
<g transform="translate(0.000000,380.000000) scale(0.100000,-0.100000)"
fill="#000000" stroke="none">
<path d="M2390 3260 c-124 -21 -297 -54 -385 -74 -192 -42 -243 -51 -405 -71
-270 -34 -811 -138 -980 -189 l-45 -13 -3 -101 c-4 -156 -3 -158 108 -217 100
-53 131 -85 150 -155 5 -20 87 -451 180 -956 94 -505 173 -928 176 -939 13
-44 45 -65 98 -65 57 0 1855 314 1899 332 52 21 57 39 51 183 -7 147 -69 520
-109 650 -30 98 -84 179 -149 222 -62 42 -113 56 -208 56 l-78 1 0 50 c-1 28
-5 70 -9 94 -6 29 -5 42 3 42 25 0 117 51 156 86 23 21 54 61 68 88 27 50 27
53 27 251 -1 193 -2 208 -43 425 -50 259 -57 287 -85 318 -18 20 -29 22 -106
21 -50 0 -180 -17 -311 -39z m-602 -197 c-2 -10 -10 -18 -18 -18 -8 0 -16 8
-18 18 -2 12 3 17 18 17 15 0 20 -5 18 -17z m922 -144 c25 -63 34 -142 20
-184 -10 -29 -16 -34 -48 -37 -58 -5 -126 41 -138 93 -19 78 5 152 62 189 27
18 30 18 57 2 18 -10 36 -34 47 -63z m-820 -159 c18 -33 132 -672 122 -682
-16 -16 -72 2 -82 25 -5 12 -32 146 -60 297 -27 151 -54 297 -59 323 -8 44 -7
49 12 56 28 11 55 3 67 -19z m-318 -167 c-1 -4 5 -15 12 -23 13 -16 51 -140
61 -200 5 -30 15 -72 30 -130 2 -8 4 -15 5 -15 1 0 3 -7 6 -15 39 -147 53
-204 59 -250 11 -84 13 -96 19 -127 12 -54 17 -78 22 -103 3 -14 7 -32 9 -40
3 -8 7 -33 11 -55 3 -22 8 -44 11 -49 3 -4 7 -20 9 -35 3 -28 11 -66 14 -66 1
0 4 -13 6 -30 2 -16 11 -48 18 -70 30 -86 43 -190 26 -210 -8 -10 -17 -10 -40
-2 -17 6 -30 15 -30 19 0 4 -6 8 -14 8 -7 0 -35 25 -61 55 -25 30 -43 55 -40
55 4 0 3 6 -2 13 -13 17 -50 153 -59 217 -2 19 -11 67 -18 105 -8 39 -14 85
-15 104 -1 18 -6 41 -11 51 -5 9 -7 20 -5 22 3 3 -1 40 -9 84 -8 43 -14 86
-14 94 1 19 -6 72 -32 250 -31 209 -28 345 8 353 19 4 24 2 24 -10z m1042
-479 c9 -3 16 -12 16 -19 0 -16 -27 -27 -35 -14 -4 5 -11 7 -16 4 -5 -4 -9 0
-9 9 0 8 6 17 13 19 6 3 13 6 14 6 1 1 8 -2 17 -5z m-507 -84 c13 0 13 -3 3
-15 -17 -20 -77 -20 -77 0 0 9 6 14 14 11 7 -3 13 -1 13 5 0 6 7 8 16 5 9 -3
23 -6 31 -6z m17 -417 c4 -69 25 -216 50 -353 24 -129 42 -238 39 -242 -7 -13
-58 -9 -75 5 -10 8 -33 108 -72 327 -32 173 -60 325 -63 337 -4 19 1 23 39 31
79 18 74 25 82 -105z m794 -17 c16 -8 35 -32 45 -58 10 -23 22 -50 26 -58 26
-48 31 -147 9 -162 -7 -5 -24 -6 -38 -3 -14 3 -31 6 -37 7 -7 1 -13 5 -13 10
0 4 -6 8 -13 8 -8 0 -24 11 -37 25 -13 14 -26 23 -29 20 -6 -6 -31 50 -38 85
-7 41 6 88 33 115 28 28 53 31 92 11z m-738 -646 c0 -22 -12 -25 -41 -10 -28
16 -23 30 11 30 23 0 30 -4 30 -20z"/>
</g>
</svg>
